Aleo-Light.ufo
<glyph name="slash" format="1">
  <advance width="413"/>
  <unicode hex="002F"/>
  <note>
    slash
  </note>
  <outline>
    <contour>
      <point x="382" y="728" type="line"/>
      <point x="362" y="728" type="line" smooth="yes"/>
      <point x="349" y="728"/>
      <point x="340" y="721"/>
      <point x="335" y="709" type="curve" smooth="yes"/>
      <point x="24" y="-42" type="line"/>
      <point x="44" y="-42" type="line" smooth="yes"/>
      <point x="53" y="-42"/>
      <point x="66" y="-37"/>
      <point x="72" y="-22" type="curve" smooth="yes"/>
    </contour>
  </outline>
</glyph>
<glyph name="semicolon" format="1">
  <advance width="229"/>
  <unicode hex="003B"/>
  <note>
    semicolon
  </note>
  <outline>
    <contour>
      <point x="140" y="390"/>
      <point x="161" y="411"/>
      <point x="161" y="437" type="curve" smooth="yes"/>
      <point x="161" y="462"/>
      <point x="140" y="483"/>
      <point x="115" y="483" type="curve" smooth="yes"/>
      <point x="89" y="483"/>
      <point x="68" y="462"/>
      <point x="68" y="437" type="curve" smooth="yes"/>
      <point x="68" y="411"/>
      <point x="89" y="390"/>
      <point x="115" y="390" type="curve" smooth="yes"/>
    </contour>
    <contour>
      <point x="144" y="85"/>
      <point x="116" y="85" type="curve" smooth="yes"/>
      <point x="92" y="85"/>
      <point x="72" y="66"/>
      <point x="72" y="42" type="curve" smooth="yes"/>
      <point x="72" y="18"/>
      <point x="92" y="-2"/>
      <point x="116" y="-2" type="curve" smooth="yes"/>
      <point x="121" y="-2"/>
      <point x="126" y="-1"/>
      <point x="130" y="0" type="curve"/>
      <point x="129" y="-25"/>
      <point x="103" y="-77"/>
      <point x="79" y="-101" type="curve" smooth="yes"/>
      <point x="73" y="-107"/>
      <point x="72" y="-113"/>
      <point x="78" y="-119" type="curve"/>
      <point x="86" y="-126" type="line"/>
      <point x="129" y="-83"/>
      <point x="161" y="-31"/>
      <point x="161" y="32" type="curve" smooth="yes"/>
      <point x="161" y="62"/>
    </contour>
  </outline>
</glyph>
<glyph name="T" format="1">
  <advance width="623"/>
  <unicode hex="0054"/>
  <note>
    T
  </note>
  <outline>
    <contour>
      <point x="30" y="708" type="line"/>
      <point x="30" y="562" type="line"/>
      <point x="55" y="562" type="line" smooth="yes"/>
      <point x="69" y="562"/>
      <point x="75" y="570"/>
      <point x="76" y="586" type="curve"/>
      <point x="80" y="665" type="line"/>
      <point x="287" y="665" type="line"/>
      <point x="287" y="40" type="line"/>
      <point x="223" y="38" type="line"/>
      <point x="210" y="37"/>
      <point x="203" y="31"/>
      <point x="203" y="20" type="curve" smooth="yes"/>
      <point x="203" y="0" type="line"/>
      <point x="423" y="0" type="line"/>
      <point x="423" y="20" type="line" smooth="yes"/>
      <point x="423" y="31"/>
      <point x="416" y="37"/>
      <point x="403" y="38" type="curve"/>
      <point x="338" y="40" type="line"/>
      <point x="338" y="665" type="line"/>
      <point x="544" y="665" type="line"/>
      <point x="548" y="586" type="line"/>
      <point x="549" y="570"/>
      <point x="556" y="562"/>
      <point x="570" y="562" type="curve" smooth="yes"/>
      <point x="594" y="562" type="line"/>
      <point x="594" y="708" type="line"/>
    </contour>
    <contour>
      <point x="312" y="354" type="move" name="center"/>
    </contour>
    <contour>
      <point x="268" y="0" type="move" name="bottom"/>
    </contour>
    <contour>
      <point x="312" y="708" type="move" name="top"/>
    </contour>
  </outline>
</glyph>
<glyph name="bracketleft" format="1">
  <advance width="269"/>
  <unicode hex="005B"/>
  <note>
    bracketleft
  </note>
  <outline>
    <contour>
      <point x="85" y="-132" type="line"/>
      <point x="244" y="-132" type="line"/>
      <point x="244" y="-114" type="line" smooth="yes"/>
      <point x="244" y="-102"/>
      <point x="237" y="-100"/>
      <point x="228" y="-100" type="curve" smooth="yes"/>
      <point x="126" y="-100" type="line"/>
      <point x="126" y="726" type="line"/>
      <point x="228" y="726" type="line" smooth="yes"/>
      <point x="238" y="726"/>
      <point x="244" y="731"/>
      <point x="244" y="740" type="curve" smooth="yes"/>
      <point x="244" y="758" type="line"/>
      <point x="85" y="758" type="line"/>
    </contour>
  </outline>
</glyph>
<glyph name="underscore" format="1">
  <advance width="570"/>
  <unicode hex="005F"/>
  <note>
    underscore
  </note>
  <outline>
    <contour>
      <point x="482" y="-102" type="line"/>
      <point x="88" y="-102" type="line"/>
      <point x="88" y="-136" type="line"/>
      <point x="482" y="-136" type="line"/>
    </contour>
  </outline>
</glyph>
<glyph name="e" format="1">
  <advance width="497"/>
  <unicode hex="0065"/>
  <note>
    e
  </note>
  <outline>
    <contour>
      <point x="123" y="506"/>
      <point x="38" y="400"/>
      <point x="38" y="259" type="curve" smooth="yes"/>
      <point x="38" y="109"/>
      <point x="113" y="-6"/>
      <point x="266" y="-6" type="curve" smooth="yes"/>
      <point x="329" y="-6"/>
      <point x="414" y="19"/>
      <point x="450" y="64" type="curve"/>
      <point x="437" y="80" type="line"/>
      <point x="433" y="86"/>
      <point x="423" y="88"/>
      <point x="411" y="77" type="curve" smooth="yes"/>
      <point x="380" y="51"/>
      <point x="320" y="31"/>
      <point x="270" y="31" type="curve" smooth="yes"/>
      <point x="143" y="31"/>
      <point x="86" y="125"/>
      <point x="86" y="268" type="curve"/>
      <point x="445" y="268" type="line" smooth="yes"/>
      <point x="452" y="268"/>
      <point x="459" y="272"/>
      <point x="459" y="287" type="curve" smooth="yes"/>
      <point x="459" y="414"/>
      <point x="386" y="506"/>
      <point x="263" y="506" type="curve" smooth="yes"/>
    </contour>
    <contour>
      <point x="357" y="470"/>
      <point x="416" y="402"/>
      <point x="416" y="299" type="curve"/>
      <point x="88" y="299" type="line"/>
      <point x="100" y="403"/>
      <point x="161" y="470"/>
      <point x="264" y="470" type="curve" smooth="yes"/>
    </contour>
    <contour>
      <point x="447" y="10" type="move" name="ogonek"/>
    </contour>
    <contour>
      <point x="249" y="0" type="move" name="bottom"/>
    </contour>
    <contour>
      <point x="263" y="498" type="move" name="top"/>
    </contour>
  </outline>
</glyph>
<glyph name="i" format="1">
  <advance width="282"/>
  <unicode hex="0069"/>
  <note>
    i
  </note>
  <outline>
    <contour>
      <point x="170" y="40" type="line"/>
      <point x="170" y="498" type="line"/>
      <point x="50" y="498" type="line"/>
      <point x="50" y="478" type="line" smooth="yes"/>
      <point x="50" y="467"/>
      <point x="57" y="461"/>
      <point x="70" y="460" type="curve"/>
      <point x="122" y="458" type="line"/>
      <point x="122" y="40" type="line"/>
      <point x="70" y="38" type="line"/>
      <point x="57" y="37"/>
      <point x="50" y="31"/>
      <point x="50" y="20" type="curve" smooth="yes"/>
      <point x="50" y="0" type="line"/>
      <point x="242" y="0" type="line"/>
      <point x="242" y="20" type="line" smooth="yes"/>
      <point x="242" y="31"/>
      <point x="235" y="37"/>
      <point x="222" y="38" type="curve"/>
    </contour>
    <contour>
      <point x="170" y="625"/>
      <point x="189" y="645"/>
      <point x="189" y="670" type="curve" smooth="yes"/>
      <point x="189" y="694"/>
      <point x="170" y="713"/>
      <point x="146" y="713" type="curve" smooth="yes"/>
      <point x="121" y="713"/>
      <point x="102" y="694"/>
      <point x="102" y="670" type="curve" smooth="yes"/>
      <point x="102" y="645"/>
      <point x="121" y="625"/>
      <point x="146" y="625" type="curve" smooth="yes"/>
    </contour>
  </outline>
</glyph>
<glyph name="x" format="1">
  <advance width="564"/>
  <unicode hex="0078"/>
  <note>
    x
  </note>
  <outline>
    <contour>
      <point x="466" y="39" type="line"/>
      <point x="312" y="257" type="line"/>
      <point x="458" y="460" type="line"/>
      <point x="489" y="461" type="line"/>
      <point x="502" y="462"/>
      <point x="509" y="468"/>
      <point x="509" y="479" type="curve" smooth="yes"/>
      <point x="509" y="498" type="line"/>
      <point x="361" y="498" type="line"/>
      <point x="361" y="479" type="line" smooth="yes"/>
      <point x="361" y="468"/>
      <point x="368" y="462"/>
      <point x="381" y="461" type="curve"/>
      <point x="407" y="460" type="line"/>
      <point x="291" y="294" type="line" smooth="yes"/>
      <point x="287" y="288"/>
      <point x="283" y="282"/>
      <point x="282" y="276" type="curve"/>
      <point x="156" y="460" type="line"/>
      <point x="180" y="461" type="line"/>
      <point x="193" y="462"/>
      <point x="200" y="468"/>
      <point x="200" y="479" type="curve" smooth="yes"/>
      <point x="200" y="498" type="line"/>
      <point x="52" y="498" type="line"/>
      <point x="52" y="479" type="line" smooth="yes"/>
      <point x="52" y="468"/>
      <point x="59" y="462"/>
      <point x="72" y="461" type="curve"/>
      <point x="103" y="460" type="line"/>
      <point x="248" y="255" type="line"/>
      <point x="95" y="39" type="line"/>
      <point x="68" y="38" type="line"/>
      <point x="55" y="37"/>
      <point x="48" y="31"/>
      <point x="48" y="20" type="curve" smooth="yes"/>
      <point x="48" y="0" type="line"/>
      <point x="196" y="0" type="line"/>
      <point x="196" y="20" type="line" smooth="yes"/>
      <point x="196" y="31"/>
      <point x="189" y="37"/>
      <point x="176" y="38" type="curve"/>
      <point x="146" y="39" type="line"/>
      <point x="272" y="216" type="line"/>
      <point x="275" y="221"/>
      <point x="277" y="225"/>
      <point x="279" y="232" type="curve"/>
      <point x="413" y="39" type="line"/>
      <point x="385" y="38" type="line"/>
      <point x="372" y="37"/>
      <point x="366" y="31"/>
      <point x="366" y="20" type="curve" smooth="yes"/>
      <point x="366" y="0" type="line"/>
      <point x="513" y="0" type="line"/>
      <point x="513" y="20" type="line" smooth="yes"/>
      <point x="513" y="31"/>
      <point x="507" y="37"/>
      <point x="494" y="38" type="curve"/>
    </contour>
  </outline>
</glyph>
<glyph name="z" format="1">
  <advance width="499"/>
  <unicode hex="007A"/>
  <note>
    z
  </note>
  <outline>
    <contour>
      <point x="412" y="125" type="line" smooth="yes"/>
      <point x="398" y="125"/>
      <point x="391" y="117"/>
      <point x="390" y="101" type="curve"/>
      <point x="385" y="37" type="line"/>
      <point x="112" y="37" type="line"/>
      <point x="423" y="459" type="line"/>
      <point x="428" y="465"/>
      <point x="430" y="471"/>
      <point x="430" y="478" type="curve" smooth="yes"/>
      <point x="430" y="498" type="line"/>
      <point x="71" y="498" type="line"/>
      <point x="71" y="369" type="line"/>
      <point x="95" y="369" type="line" smooth="yes"/>
      <point x="109" y="369"/>
      <point x="116" y="377"/>
      <point x="117" y="393" type="curve"/>
      <point x="122" y="461" type="line"/>
      <point x="374" y="461" type="line"/>
      <point x="62" y="37" type="line" smooth="yes"/>
      <point x="57" y="30"/>
      <point x="54" y="25"/>
      <point x="54" y="19" type="curve" smooth="yes"/>
      <point x="54" y="0" type="line"/>
      <point x="436" y="0" type="line"/>
      <point x="436" y="125" type="line"/>
    </contour>
    <contour>
      <point x="258" y="498" type="move" name="top"/>
    </contour>
    <contour>
      <point x="250" y="0" type="move" name="bottom"/>
    </contour>
  </outline>
</glyph>
<glyph name="cent" format="1">
  <advance width="465"/>
  <unicode hex="00A2"/>
  <note>
    cent
  </note>
  <outline>
    <contour>
      <point x="416" y="80" type="line"/>
      <point x="412" y="86"/>
      <point x="402" y="88"/>
      <point x="391" y="77" type="curve" smooth="yes"/>
      <point x="353" y="39"/>
      <point x="305" y="32"/>
      <point x="252" y="32" type="curve"/>
      <point x="273" y="467" type="line"/>
      <point x="274" y="468" type="line"/>
      <point x="298" y="468"/>
      <point x="326" y="462"/>
      <point x="357" y="451" type="curve"/>
      <point x="364" y="373" type="line"/>
      <point x="365" y="357"/>
      <point x="371" y="349"/>
      <point x="385" y="349" type="curve" smooth="yes"/>
      <point x="409" y="349" type="line"/>
      <point x="409" y="474" type="line"/>
      <point x="361" y="489"/>
      <point x="304" y="503"/>
      <point x="275" y="505" type="curve"/>
      <point x="281" y="624" type="line"/>
      <point x="263" y="624" type="line" smooth="yes"/>
      <point x="255" y="624"/>
      <point x="248" y="615"/>
      <point x="248" y="608" type="curve"/>
      <point x="243" y="505" type="line"/>
      <point x="243" y="504" type="line"/>
      <point x="119" y="496"/>
      <point x="45" y="389"/>
      <point x="45" y="249" type="curve" smooth="yes"/>
      <point x="45" y="122"/>
      <point x="103" y="18"/>
      <point x="218" y="-3" type="curve"/>
      <point x="212" y="-126" type="line"/>
      <point x="230" y="-126" type="line" smooth="yes"/>
      <point x="240" y="-126"/>
      <point x="245" y="-120"/>
      <point x="245" y="-110" type="curve"/>
      <point x="250" y="-6" type="line"/>
      <point x="327" y="-6"/>
      <point x="393" y="17"/>
      <point x="429" y="64" type="curve"/>
    </contour>
    <contour>
      <point x="93" y="149"/>
      <point x="93" y="249" type="curve" smooth="yes"/>
      <point x="93" y="355"/>
      <point x="139" y="454"/>
      <point x="242" y="466" type="curve"/>
      <point x="220" y="37" type="line"/>
      <point x="133" y="58"/>
    </contour>
  </outline>
</glyph>
<glyph name="guillemotleft" format="1">
  <advance width="379"/>
  <unicode hex="00AB"/>
  <note>
    guillemotleft
  </note>
  <outline>
    <contour>
      <point x="50" y="256" type="line"/>
      <point x="171" y="67" type="line"/>
      <point x="186" y="74" type="line"/>
      <point x="197" y="81"/>
      <point x="194" y="89"/>
      <point x="190" y="98" type="curve"/>
      <point x="99" y="246" type="line" smooth="yes"/>
      <point x="95" y="253"/>
      <point x="91" y="257"/>
      <point x="88" y="260" type="curve"/>
      <point x="91" y="263"/>
      <point x="95" y="267"/>
      <point x="99" y="274" type="curve"/>
      <point x="190" y="420" type="line"/>
      <point x="193" y="427"/>
      <point x="199" y="436"/>
      <point x="186" y="444" type="curve"/>
      <point x="171" y="452" type="line"/>
      <point x="50" y="263" type="line"/>
    </contour>
    <contour>
      <point x="178" y="256" type="line"/>
      <point x="298" y="67" type="line"/>
      <point x="314" y="74" type="line"/>
      <point x="325" y="80"/>
      <point x="323" y="89"/>
      <point x="318" y="99" type="curve"/>
      <point x="226" y="246" type="line"/>
      <point x="222" y="253"/>
      <point x="219" y="257"/>
      <point x="216" y="260" type="curve"/>
      <point x="219" y="263"/>
      <point x="222" y="267"/>
      <point x="226" y="274" type="curve"/>
      <point x="318" y="421" type="line"/>
      <point x="321" y="427"/>
      <point x="327" y="437"/>
      <point x="314" y="445" type="curve"/>
      <point x="298" y="452" type="line"/>
      <point x="178" y="263" type="line"/>
    </contour>
  </outline>
</glyph>
<glyph name="registered" format="1">
  <advance width="820"/>
  <unicode hex="00AE"/>
  <note>
    registered
  </note>
  <outline>
    <contour>
      <point x="50" y="154"/>
      <point x="210" y="-7"/>
      <point x="410" y="-7" type="curve" smooth="yes"/>
      <point x="610" y="-7"/>
      <point x="771" y="155"/>
      <point x="771" y="354" type="curve" smooth="yes"/>
      <point x="771" y="552"/>
      <point x="608" y="715"/>
      <point x="410" y="715" type="curve" smooth="yes"/>
      <point x="215" y="715"/>
      <point x="50" y="558"/>
      <point x="50" y="354" type="curve" smooth="yes"/>
    </contour>
    <contour>
      <point x="79" y="538"/>
      <point x="226" y="688"/>
      <point x="410" y="688" type="curve" smooth="yes"/>
      <point x="596" y="688"/>
      <point x="742" y="538"/>
      <point x="742" y="354" type="curve" smooth="yes"/>
      <point x="742" y="172"/>
      <point x="598" y="20"/>
      <point x="410" y="20" type="curve" smooth="yes"/>
      <point x="226" y="20"/>
      <point x="79" y="171"/>
      <point x="79" y="354" type="curve" smooth="yes"/>
    </contour>
    <contour>
      <point x="319" y="328" type="line"/>
      <point x="374" y="328" type="line" smooth="yes"/>
      <point x="385" y="328"/>
      <point x="395" y="328"/>
      <point x="404" y="316" type="curve" smooth="yes"/>
      <point x="539" y="141" type="line"/>
      <point x="543" y="135"/>
      <point x="547" y="133"/>
      <point x="554" y="133" type="curve" smooth="yes"/>
      <point x="594" y="133" type="line"/>
      <point x="452" y="317" type="line"/>
      <point x="446" y="324"/>
      <point x="440" y="332"/>
      <point x="432" y="337" type="curve"/>
      <point x="502" y="346"/>
      <point x="555" y="385"/>
      <point x="555" y="459" type="curve" smooth="yes"/>
      <point x="555" y="542"/>
      <point x="497" y="576"/>
      <point x="400" y="576" type="curve" smooth="yes"/>
      <point x="276" y="576" type="line"/>
      <point x="276" y="133" type="line"/>
      <point x="319" y="133" type="line"/>
    </contour>
    <contour>
      <point x="319" y="360" type="line"/>
      <point x="319" y="542" type="line"/>
      <point x="400" y="542" type="line" smooth="yes"/>
      <point x="470" y="542"/>
      <point x="513" y="524"/>
      <point x="513" y="454" type="curve" smooth="yes"/>
      <point x="513" y="388"/>
      <point x="464" y="360"/>
      <point x="393" y="360" type="curve" smooth="yes"/>
    </contour>
  </outline>
</glyph>
<glyph name="onesuperior" format="1">
  <advance width="291"/>
  <unicode hex="00B9"/>
  <note>
    onesuperior
  </note>
  <outline>
    <contour>
      <point x="64" y="474" type="line"/>
      <point x="64" y="450" type="line"/>
      <point x="252" y="450" type="line"/>
      <point x="252" y="474" type="line"/>
      <point x="179" y="474" type="line"/>
      <point x="179" y="809" type="line"/>
      <point x="150" y="809" type="line"/>
      <point x="44" y="717" type="line"/>
      <point x="56" y="702" type="line"/>
      <point x="61" y="695"/>
      <point x="66" y="696"/>
      <point x="72" y="700" type="curve"/>
      <point x="144" y="763" type="line"/>
      <point x="142" y="744" type="line"/>
      <point x="142" y="474" type="line"/>
    </contour>
  </outline>
</glyph>
<glyph name="onequarter" format="1">
  <advance width="686"/>
  <unicode hex="00BC"/>
  <note>
    onequarter
  </note>
  <outline>
    <contour>
      <point x="598" y="124" type="line"/>
      <point x="598" y="358" type="line"/>
      <point x="564" y="358" type="line"/>
      <point x="388" y="122" type="line"/>
      <point x="392" y="106" type="line"/>
      <point x="393" y="101"/>
      <point x="396" y="98"/>
      <point x="404" y="98" type="curve" smooth="yes"/>
      <point x="566" y="98" type="line"/>
      <point x="566" y="0" type="line"/>
      <point x="598" y="0" type="line"/>
      <point x="598" y="98" type="line"/>
      <point x="652" y="98" type="line" smooth="yes"/>
      <point x="658" y="98"/>
      <point x="661" y="101"/>
      <point x="661" y="106" type="curve" smooth="yes"/>
      <point x="661" y="124" type="line"/>
    </contour>
    <contour>
      <point x="566" y="124" type="line"/>
      <point x="424" y="124" type="line"/>
      <point x="568" y="317" type="line"/>
      <point x="567" y="307"/>
      <point x="566" y="299"/>
      <point x="566" y="291" type="curve" smooth="yes"/>
    </contour>
    <contour>
      <point x="570" y="708" type="line"/>
      <point x="548" y="708" type="line" smooth="yes"/>
      <point x="536" y="708"/>
      <point x="526" y="701"/>
      <point x="521" y="690" type="curve"/>
      <point x="121" y="0" type="line"/>
      <point x="141" y="0" type="line" smooth="yes"/>
      <point x="155" y="0"/>
      <point x="160" y="4"/>
      <point x="168" y="16" type="curve"/>
    </contour>
    <component base="onesuperior" xOffset="-12" yOffset="-99"/>
  </outline>
</glyph>
<glyph name="onehalf" format="1">
  <advance width="688"/>
  <unicode hex="00BD"/>
  <note>
    onehalf
  </note>
  <outline>
    <contour>
      <point x="546" y="708" type="line"/>
      <point x="525" y="708" type="line" smooth="yes"/>
      <point x="513" y="708"/>
      <point x="503" y="701"/>
      <point x="498" y="690" type="curve"/>
      <point x="98" y="0" type="line"/>
      <point x="118" y="0" type="line" smooth="yes"/>
      <point x="132" y="0"/>
      <point x="137" y="4"/>
      <point x="145" y="16" type="curve"/>
    </contour>
    <component base="onesuperior" xOffset="-12" yOffset="-99"/>
    <component base="twosuperior" xOffset="358" yOffset="-450"/>
  </outline>
</glyph>
<glyph name="questiondown" format="1">
  <advance width="415"/>
  <unicode hex="00BF"/>
  <note>
    questiondown
  </note>
  <outline>
    <contour>
      <point x="367" y="-92" type="line"/>
      <point x="366" y="-90"/>
      <point x="365" y="-89"/>
      <point x="363" y="-88" type="curve" smooth="yes"/>
      <point x="361" y="-87"/>
      <point x="359" y="-86"/>
      <point x="356" y="-86" type="curve" smooth="yes"/>
      <point x="353" y="-86"/>
      <point x="348" y="-89"/>
      <point x="342" y="-95" type="curve" smooth="yes"/>
      <point x="314" y="-123"/>
      <point x="269" y="-142"/>
      <point x="219" y="-142" type="curve" smooth="yes"/>
      <point x="149" y="-142"/>
      <point x="90" y="-102"/>
      <point x="90" y="-28" type="curve" smooth="yes"/>
      <point x="90" y="49"/>
      <point x="126" y="64"/>
      <point x="209" y="126" type="curve" smooth="yes"/>
      <point x="234" y="145"/>
      <point x="250" y="164"/>
      <point x="250" y="190" type="curve" smooth="yes"/>
      <point x="248" y="277" type="line"/>
      <point x="215" y="277" type="line"/>
      <point x="210" y="196" type="line" smooth="yes"/>
      <point x="208" y="171"/>
      <point x="190" y="157"/>
      <point x="164" y="140" type="curve" smooth="yes"/>
      <point x="89" y="90"/>
      <point x="44" y="51"/>
      <point x="44" y="-32" type="curve" smooth="yes"/>
      <point x="44" y="-123"/>
      <point x="122" y="-182"/>
      <point x="216" y="-182" type="curve" smooth="yes"/>
      <point x="276" y="-182"/>
      <point x="337" y="-155"/>
      <point x="380" y="-112" type="curve"/>
    </contour>
    <contour>
      <point x="257" y="413"/>
      <point x="278" y="434"/>
      <point x="278" y="459" type="curve" smooth="yes"/>
      <point x="278" y="484"/>
      <point x="257" y="505"/>
      <point x="232" y="505" type="curve" smooth="yes"/>
      <point x="207" y="505"/>
      <point x="186" y="484"/>
      <point x="186" y="459" type="curve" smooth="yes"/>
      <point x="186" y="434"/>
      <point x="207" y="413"/>
      <point x="232" y="413" type="curve" smooth="yes"/>
    </contour>
  </outline>
</glyph>
<glyph name="AE" format="1">
  <advance width="998"/>
  <unicode hex="00C6"/>
  <note>
    AE
  </note>
  <outline>
    <contour>
      <point x="372" y="708" type="line"/>
      <point x="372" y="689" type="line" smooth="yes"/>
      <point x="372" y="678"/>
      <point x="379" y="672"/>
      <point x="392" y="671" type="curve"/>
      <point x="433" y="670" type="line"/>
      <point x="89" y="46" type="line"/>
      <point x="57" y="43" type="line" smooth="yes"/>
      <point x="44" y="42"/>
      <point x="38" y="35"/>
      <point x="38" y="23" type="curve" smooth="yes"/>
      <point x="38" y="0" type="line"/>
      <point x="211" y="0" type="line"/>
      <point x="211" y="23" type="line" smooth="yes"/>
      <point x="211" y="36"/>
      <point x="203" y="42"/>
      <point x="188" y="43" type="curve"/>
      <point x="142" y="46" type="line"/>
      <point x="237" y="219" type="line"/>
      <point x="535" y="219" type="line"/>
      <point x="558" y="39" type="line"/>
      <point x="509" y="38" type="line"/>
      <point x="496" y="37"/>
      <point x="490" y="31"/>
      <point x="490" y="20" type="curve" smooth="yes"/>
      <point x="490" y="0" type="line"/>
      <point x="934" y="0" type="line"/>
      <point x="934" y="147" type="line"/>
      <point x="910" y="147" type="line" smooth="yes"/>
      <point x="896" y="147"/>
      <point x="889" y="138"/>
      <point x="888" y="122" type="curve"/>
      <point x="884" y="43" type="line"/>
      <point x="606" y="43" type="line"/>
      <point x="568" y="338" type="line"/>
      <point x="843" y="338" type="line"/>
      <point x="843" y="379" type="line"/>
      <point x="563" y="379" type="line"/>
      <point x="527" y="666" type="line"/>
      <point x="884" y="666" type="line"/>
      <point x="888" y="586" type="line"/>
      <point x="889" y="570"/>
      <point x="896" y="562"/>
      <point x="910" y="562" type="curve" smooth="yes"/>
      <point x="934" y="562" type="line"/>
      <point x="934" y="708" type="line"/>
    </contour>
    <contour>
      <point x="530" y="257" type="line"/>
      <point x="258" y="257" type="line"/>
      <point x="458" y="622" type="line"/>
      <point x="463" y="633"/>
      <point x="473" y="654"/>
      <point x="478" y="669" type="curve"/>
    </contour>
  </outline>
</glyph>
<glyph name="divide" format="1">
  <advance width="524"/>
  <unicode hex="00F7"/>
  <note>
    divide
  </note>
  <outline>
    <contour>
      <point x="26" y="354" type="line"/>
      <point x="26" y="317" type="line"/>
      <point x="496" y="317" type="line"/>
      <point x="496" y="354" type="line"/>
    </contour>
    <contour>
      <point x="287" y="110"/>
      <point x="308" y="131"/>
      <point x="308" y="158" type="curve" smooth="yes"/>
      <point x="308" y="184"/>
      <point x="287" y="205"/>
      <point x="261" y="205" type="curve" smooth="yes"/>
      <point x="234" y="205"/>
      <point x="213" y="184"/>
      <point x="213" y="158" type="curve" smooth="yes"/>
      <point x="213" y="131"/>
      <point x="234" y="110"/>
      <point x="261" y="110" type="curve" smooth="yes"/>
    </contour>
    <contour>
      <point x="287" y="465"/>
      <point x="308" y="486"/>
      <point x="308" y="513" type="curve" smooth="yes"/>
      <point x="308" y="539"/>
      <point x="287" y="560"/>
      <point x="261" y="560" type="curve" smooth="yes"/>
      <point x="234" y="560"/>
      <point x="213" y="539"/>
      <point x="213" y="513" type="curve" smooth="yes"/>
      <point x="213" y="486"/>
      <point x="234" y="465"/>
      <point x="261" y="465" type="curve" smooth="yes"/>
    </contour>
  </outline>
</glyph>
<glyph name="dcroat" format="1">
  <advance width="560"/>
  <unicode hex="0111"/>
  <outline>
    <contour>
      <point x="529" y="581" type="line"/>
      <point x="529" y="614" type="line"/>
      <point x="282" y="614" type="line"/>
      <point x="282" y="581" type="line"/>
    </contour>
    <component base="d"/>
  </outline>
</glyph>
<glyph name="macroncomb" format="1">
  <advance width="391"/>
  <unicode hex="0304"/>
  <outline>
    <contour>
      <point x="92" y="594" type="line"/>
      <point x="92" y="564" type="line"/>
      <point x="300" y="564" type="line"/>
      <point x="300" y="594" type="line"/>
    </contour>
    <contour>
      <point x="196" y="594" type="move" name="top"/>
    </contour>
    <contour>
      <point x="196" y="498" type="move" name="_top"/>
    </contour>
  </outline>
</glyph>
<glyph name="dotaccentcomb" format="1">
  <advance width="270"/>
  <unicode hex="0307"/>
  <outline>
    <contour>
      <point x="159" y="796"/>
      <point x="179" y="815"/>
      <point x="179" y="839" type="curve" smooth="yes"/>
      <point x="179" y="862"/>
      <point x="159" y="882"/>
      <point x="136" y="882" type="curve" smooth="yes"/>
      <point x="112" y="882"/>
      <point x="93" y="862"/>
      <point x="93" y="839" type="curve" smooth="yes"/>
      <point x="93" y="815"/>
      <point x="112" y="796"/>
      <point x="136" y="796" type="curve" smooth="yes"/>
    </contour>
    <contour>
      <point x="136" y="882" type="move" name="top"/>
    </contour>
    <contour>
      <point x="136" y="708" type="move" name="_top"/>
    </contour>
  </outline>
</glyph>
<glyph name="quoteleft" format="1">
  <advance width="205"/>
  <unicode hex="2018"/>
  <note>
    quoteleft
  </note>
  <outline>
    <contour>
      <point x="115" y="542" type="line"/>
      <point x="123" y="545"/>
      <point x="123" y="555"/>
      <point x="120" y="560" type="curve"/>
      <point x="108" y="580"/>
      <point x="102" y="600"/>
      <point x="102" y="620" type="curve" smooth="yes"/>
      <point x="102" y="653"/>
      <point x="122" y="690"/>
      <point x="146" y="722" type="curve"/>
      <point x="148" y="725"/>
      <point x="152" y="731"/>
      <point x="146" y="735" type="curve" smooth="yes"/>
      <point x="132" y="744" type="line"/>
      <point x="89" y="701"/>
      <point x="64" y="660"/>
      <point x="64" y="604" type="curve" smooth="yes"/>
      <point x="64" y="575"/>
      <point x="70" y="554"/>
      <point x="84" y="528" type="curve"/>
    </contour>
  </outline>
</glyph>
<glyph name="quotedblleft" format="1">
  <advance width="340"/>
  <unicode hex="201C"/>
  <note>
    quotedblleft
  </note>
  <outline>
    <contour>
      <point x="115" y="542" type="line"/>
      <point x="123" y="545"/>
      <point x="123" y="555"/>
      <point x="120" y="560" type="curve"/>
      <point x="108" y="580"/>
      <point x="102" y="600"/>
      <point x="102" y="620" type="curve" smooth="yes"/>
      <point x="102" y="653"/>
      <point x="122" y="690"/>
      <point x="146" y="722" type="curve"/>
      <point x="148" y="724"/>
      <point x="152" y="731"/>
      <point x="146" y="735" type="curve" smooth="yes"/>
      <point x="132" y="744" type="line"/>
      <point x="89" y="701"/>
      <point x="64" y="660"/>
      <point x="64" y="604" type="curve" smooth="yes"/>
      <point x="64" y="575"/>
      <point x="70" y="554"/>
      <point x="84" y="528" type="curve"/>
    </contour>
    <contour>
      <point x="250" y="541" type="line" smooth="yes"/>
      <point x="258" y="544"/>
      <point x="259" y="552"/>
      <point x="254" y="559" type="curve"/>
      <point x="242" y="579"/>
      <point x="237" y="599"/>
      <point x="237" y="619" type="curve" smooth="yes"/>
      <point x="237" y="637"/>
      <point x="242" y="654"/>
      <point x="250" y="671" type="curve" smooth="yes"/>
      <point x="258" y="688"/>
      <point x="268" y="705"/>
      <point x="281" y="722" type="curve"/>
      <point x="286" y="727"/>
      <point x="284" y="732"/>
      <point x="280" y="735" type="curve" smooth="yes"/>
      <point x="266" y="744" type="line"/>
      <point x="228" y="706"/>
      <point x="198" y="659"/>
      <point x="198" y="604" type="curve" smooth="yes"/>
      <point x="198" y="580"/>
      <point x="206" y="550"/>
      <point x="218" y="528" type="curve"/>
    </contour>
  </outline>
</glyph>
<glyph name="guilsinglright" format="1">
  <advance width="253"/>
  <unicode hex="203A"/>
  <note>
    guilsinglright
  </note>
  <outline>
    <contour>
      <point x="84" y="67" type="line"/>
      <point x="204" y="256" type="line"/>
      <point x="204" y="263" type="line"/>
      <point x="84" y="452" type="line"/>
      <point x="68" y="444" type="line" smooth="yes"/>
      <point x="58" y="439"/>
      <point x="59" y="430"/>
      <point x="64" y="420" type="curve"/>
      <point x="155" y="274" type="line"/>
      <point x="158" y="269"/>
      <point x="161" y="264"/>
      <point x="166" y="260" type="curve"/>
      <point x="161" y="256"/>
      <point x="157" y="250"/>
      <point x="155" y="246" type="curve"/>
      <point x="64" y="99" type="line"/>
      <point x="61" y="92"/>
      <point x="55" y="81"/>
      <point x="68" y="75" type="curve" smooth="yes"/>
    </contour>
  </outline>
</glyph>
<glyph name="fraction" format="1">
  <advance width="515"/>
  <unicode hex="2044"/>
  <note>
    fraction
  </note>
  <outline>
    <contour>
      <point x="486" y="708" type="line"/>
      <point x="464" y="708" type="line" smooth="yes"/>
      <point x="452" y="708"/>
      <point x="442" y="701"/>
      <point x="437" y="690" type="curve"/>
      <point x="37" y="0" type="line"/>
      <point x="57" y="0" type="line" smooth="yes"/>
      <point x="71" y="0"/>
      <point x="76" y="4"/>
      <point x="84" y="16" type="curve"/>
    </contour>
  </outline>
</glyph>
<glyph name="trademark" format="1">
  <advance width="724"/>
  <unicode hex="2122"/>
  <note>
    trademark
  </note>
  <outline>
    <contour>
      <point x="493" y="520" type="line"/>
      <point x="384" y="702" type="line"/>
      <point x="382" y="704"/>
      <point x="378" y="708"/>
      <point x="372" y="708" type="curve" smooth="yes"/>
      <point x="343" y="708" type="line"/>
      <point x="343" y="420" type="line"/>
      <point x="374" y="420" type="line"/>
      <point x="374" y="642" type="line"/>
      <point x="372" y="662" type="line"/>
      <point x="484" y="474" type="line" smooth="yes"/>
      <point x="487" y="469"/>
      <point x="490" y="466"/>
      <point x="496" y="466" type="curve" smooth="yes"/>
      <point x="502" y="466" type="line" smooth="yes"/>
      <point x="508" y="466"/>
      <point x="511" y="469"/>
      <point x="514" y="474" type="curve" smooth="yes"/>
      <point x="624" y="664" type="line"/>
      <point x="621" y="642" type="line"/>
      <point x="621" y="420" type="line"/>
      <point x="652" y="420" type="line"/>
      <point x="652" y="708" type="line"/>
      <point x="624" y="708" type="line" smooth="yes"/>
      <point x="622" y="708"/>
      <point x="616" y="708"/>
      <point x="612" y="702" type="curve"/>
      <point x="505" y="520" type="line"/>
      <point x="499" y="505" type="line"/>
    </contour>
    <contour>
      <point x="280" y="707" type="line"/>
      <point x="45" y="707" type="line"/>
      <point x="45" y="678" type="line"/>
      <point x="146" y="678" type="line"/>
      <point x="146" y="420" type="line"/>
      <point x="181" y="420" type="line"/>
      <point x="181" y="678" type="line"/>
      <point x="280" y="678" type="line"/>
    </contour>
  </outline>
</glyph>
<glyph name="Delta" format="1">
  <advance width="706"/>
  <unicode hex="2206"/>
  <note>
    Delta
  </note>
  <outline>
    <contour>
      <point x="324" y="708" type="line"/>
      <point x="30" y="0" type="line"/>
      <point x="664" y="0" type="line"/>
      <point x="370" y="708" type="line"/>
    </contour>
    <contour>
      <point x="99" y="42" type="line"/>
      <point x="334" y="614" type="line"/>
      <point x="347" y="652" type="line"/>
      <point x="360" y="614" type="line"/>
      <point x="595" y="42" type="line"/>
    </contour>
  </outline>
</glyph>
<glyph name="approxequal" format="1">
  <advance width="507"/>
  <unicode hex="2248"/>
  <note>
    approxequal
  </note>
  <outline>
    <contour>
      <point x="326" y="405"/>
      <point x="296" y="418"/>
      <point x="259" y="434" type="curve" smooth="yes"/>
      <point x="224" y="449"/>
      <point x="192" y="463"/>
      <point x="158" y="463" type="curve" smooth="yes"/>
      <point x="119" y="463"/>
      <point x="84" y="447"/>
      <point x="63" y="416" type="curve"/>
      <point x="74" y="388" type="line"/>
      <point x="88" y="408"/>
      <point x="121" y="426"/>
      <point x="155" y="426" type="curve" smooth="yes"/>
      <point x="180" y="426"/>
      <point x="214" y="412"/>
      <point x="251" y="396" type="curve" smooth="yes"/>
      <point x="283" y="382"/>
      <point x="320" y="368"/>
      <point x="352" y="368" type="curve" smooth="yes"/>
      <point x="391" y="368"/>
      <point x="422" y="382"/>
      <point x="444" y="413" type="curve"/>
      <point x="435" y="442" type="line"/>
      <point x="418" y="421"/>
      <point x="388" y="405"/>
      <point x="354" y="405" type="curve" smooth="yes"/>
    </contour>
    <contour>
      <point x="326" y="247"/>
      <point x="296" y="260"/>
      <point x="259" y="276" type="curve" smooth="yes"/>
      <point x="224" y="291"/>
      <point x="192" y="305"/>
      <point x="158" y="305" type="curve" smooth="yes"/>
      <point x="120" y="305"/>
      <point x="83" y="289"/>
      <point x="63" y="259" type="curve"/>
      <point x="74" y="231" type="line"/>
      <point x="88" y="252"/>
      <point x="119" y="268"/>
      <point x="155" y="268" type="curve" smooth="yes"/>
      <point x="184" y="268"/>
      <point x="214" y="255"/>
      <point x="251" y="239" type="curve" smooth="yes"/>
      <point x="286" y="224"/>
      <point x="318" y="210"/>
      <point x="352" y="210" type="curve" smooth="yes"/>
      <point x="389" y="210"/>
      <point x="423" y="226"/>
      <point x="444" y="255" type="curve"/>
      <point x="435" y="284" type="line"/>
      <point x="418" y="263"/>
      <point x="388" y="247"/>
      <point x="354" y="247" type="curve" smooth="yes"/>
    </contour>
  </outline>
</glyph>
<glyph name="fl" format="1">
  <advance width="646"/>
  <unicode hex="FB02"/>
  <note>
    fl
  </note>
  <outline>
    <contour>
      <point x="610" y="26" type="line"/>
      <point x="610" y="30"/>
      <point x="607" y="32"/>
      <point x="603" y="32" type="curve" smooth="yes"/>
      <point x="601" y="32"/>
      <point x="581" y="28"/>
      <point x="572" y="28" type="curve" smooth="yes"/>
      <point x="518" y="28"/>
      <point x="492" y="59"/>
      <point x="492" y="112" type="curve" smooth="yes"/>
      <point x="492" y="712" type="line"/>
      <point x="431" y="713" type="line"/>
      <point x="406" y="716"/>
      <point x="346" y="720"/>
      <point x="328" y="720" type="curve" smooth="yes"/>
      <point x="206" y="720"/>
      <point x="130" y="637"/>
      <point x="130" y="514" type="curve" smooth="yes"/>
      <point x="130" y="481" type="line"/>
      <point x="46" y="481" type="line"/>
      <point x="46" y="462" type="line" smooth="yes"/>
      <point x="46" y="454"/>
      <point x="50" y="450"/>
      <point x="60" y="449" type="curve"/>
      <point x="130" y="445" type="line"/>
      <point x="130" y="39" type="line"/>
      <point x="67" y="37" type="line"/>
      <point x="54" y="36"/>
      <point x="47" y="30"/>
      <point x="47" y="19" type="curve" smooth="yes"/>
      <point x="47" y="0" type="line"/>
      <point x="261" y="0" type="line"/>
      <point x="261" y="19" type="line" smooth="yes"/>
      <point x="261" y="30"/>
      <point x="254" y="36"/>
      <point x="241" y="37" type="curve"/>
      <point x="177" y="39" type="line"/>
      <point x="177" y="445" type="line"/>
      <point x="320" y="445" type="line"/>
      <point x="320" y="481" type="line"/>
      <point x="177" y="481" type="line"/>
      <point x="177" y="514" type="line" smooth="yes"/>
      <point x="177" y="559"/>
      <point x="186" y="601"/>
      <point x="218" y="638" type="curve"/>
      <point x="247" y="670"/>
      <point x="290" y="684"/>
      <point x="335" y="684" type="curve" smooth="yes"/>
      <point x="350" y="684"/>
      <point x="368" y="683"/>
      <point x="445" y="678" type="curve"/>
      <point x="445" y="111" type="line" smooth="yes"/>
      <point x="445" y="39"/>
      <point x="493" y="-9"/>
      <point x="564" y="-9" type="curve" smooth="yes"/>
      <point x="576" y="-9"/>
      <point x="598" y="-6"/>
      <point x="612" y="2" type="curve"/>
    </contour>
  </outline>
</glyph>
<glyph name="Bottom_original_serifs" format="1">
  <advance width="771"/>
  <outline>
    <contour>
      <point x="126" y="0" type="line"/>
      <point x="216" y="232" type="line"/>
      <point x="554" y="232" type="line"/>
      <point x="648" y="0" type="line"/>
      <point x="704" y="0" type="line"/>
      <point x="412" y="708" type="line"/>
      <point x="360" y="708" type="line"/>
      <point x="70" y="0" type="line"/>
    </contour>
    <contour>
      <point x="70" y="0" type="line"/>
      <point x="126" y="0" type="line"/>
      <point x="210" y="0" type="line"/>
      <point x="210" y="23" type="line" smooth="yes"/>
      <point x="210" y="41"/>
      <point x="193" y="43"/>
      <point x="181" y="44" type="curve"/>
      <point x="110" y="48" type="line" smooth="yes"/>
      <point x="57" y="43" type="line" smooth="yes"/>
      <point x="44" y="42"/>
      <point x="38" y="35"/>
      <point x="38" y="23" type="curve" smooth="yes"/>
      <point x="38" y="0" type="line"/>
    </contour>
    <contour>
      <point x="648" y="0" type="line"/>
      <point x="704" y="0" type="line"/>
      <point x="736" y="0" type="line"/>
      <point x="736" y="23" type="line" smooth="yes"/>
      <point x="736" y="35"/>
      <point x="730" y="42"/>
      <point x="717" y="43" type="curve" smooth="yes"/>
      <point x="664" y="48" type="line"/>
      <point x="593" y="44" type="line"/>
      <point x="581" y="43"/>
      <point x="564" y="41"/>
      <point x="564" y="23" type="curve" smooth="yes"/>
      <point x="564" y="0" type="line"/>
    </contour>
    <contour>
      <point x="371" y="614" type="line"/>
      <point x="387" y="656" type="line"/>
      <point x="401" y="614" type="line"/>
      <point x="539" y="270" type="line"/>
      <point x="232" y="270" type="line"/>
    </contour>
  </outline>
</glyph>
<glyph name="brevecomb.case" format="1">
  <advance width="423"/>
  <outline>
    <contour>
      <point x="288" y="580"/>
      <point x="333" y="612"/>
      <point x="333" y="686" type="curve"/>
      <point x="301" y="686" type="line"/>
      <point x="301" y="637"/>
      <point x="271" y="610"/>
      <point x="212" y="610" type="curve" smooth="yes"/>
      <point x="157" y="610"/>
      <point x="123" y="633"/>
      <point x="123" y="686" type="curve"/>
      <point x="91" y="686" type="line"/>
      <point x="91" y="613"/>
      <point x="135" y="580"/>
      <point x="212" y="580" type="curve" smooth="yes"/>
    </contour>
    <contour>
      <point x="212" y="656" type="move" name="top"/>
    </contour>
    <contour>
      <point x="212" y="498" type="move" name="_top"/>
    </contour>
  </outline>
</glyph>
<glyph name="circumflexcomb.case" format="1">
  <advance width="771"/>
  <outline>
    <contour>
      <point x="525" y="771" type="line"/>
      <point x="407" y="870" type="line"/>
      <point x="362" y="870" type="line"/>
      <point x="245" y="771" type="line"/>
      <point x="282" y="771" type="line" smooth="yes"/>
      <point x="286" y="771"/>
      <point x="293" y="772"/>
      <point x="298" y="776" type="curve"/>
      <point x="385" y="844" type="line"/>
      <point x="471" y="776" type="line"/>
      <point x="474" y="773"/>
      <point x="482" y="771"/>
      <point x="488" y="771" type="curve" smooth="yes"/>
    </contour>
    <contour>
      <point x="385" y="870" type="move" name="top"/>
    </contour>
    <contour>
      <point x="385" y="708" type="move" name="_top"/>
    </contour>
  </outline>
</glyph>
